<?xml version="1.0" encoding="UTF-8" standalone="no"?>
<svg width="82px" height="45px" viewBox="0 0 82 45" version="1.1" xmlns="http://www.w3.org/2000/svg" xmlns:xlink="http://www.w3.org/1999/xlink">
    <!-- Generator: Sketch 41 (35326) - http://www.bohemiancoding.com/sketch -->
    <title>Logo</title>
    <desc>Created with Sketch.</desc>
    <defs>
        <polygon id="path-1" points="81.9984253 44.9763948 0 44.9763948 0 0.000582579186 81.9984253 0.000582579186 81.9984253 44.9763948"></polygon>
    </defs>
    <g id="Page-1" stroke="none" stroke-width="1" fill="none" fill-rule="evenodd">
        <g id="Desktop-HD" transform="translate(-919.000000, -4943.000000)">
            <g id="Logo" transform="translate(919.000000, 4943.000000)">
                <mask id="mask-2" fill="white">
                    <use xlink:href="#path-1"></use>
                </mask>
                <g id="Clip-2"></g>
                <path d="M77.4922557,24.8359333 C77.2472902,24.1100396 77.0023247,23.3864762 76.7549694,22.6582523 C78.9369544,22.9448812 77.6834482,23.8420532 78.9859475,21.9300283 C80.8787539,22.9903224 79.8283897,21.7750622 80.4748596,24.1100396 C79.3456285,24.4992025 79.2117937,24.598241 77.4922557,24.8359333 L77.4922557,24.8359333 Z M64.8400882,16.1275396 C63.532809,15.6684672 64.1195312,15.9807296 63.3487862,15.3958201 C62.6724425,14.7200283 62.3617546,14.1246324 61.8622641,13.2216346 L65.5869341,13.2216346 C65.3658677,14.9099491 65.2487622,15.0183088 64.8400882,16.1275396 L64.8400882,16.1275396 Z M63.3487862,40.806759 L63.3487862,40.0785351 C64.8986409,39.812879 64.7791455,39.9049265 65.5869341,39.3549717 C65.3168746,40.6995645 66.0159224,40.5108088 63.3487862,40.806759 L63.3487862,40.806759 Z M64.0956321,31.3666459 L63.3487862,31.3666459 L63.3487862,29.9218495 C63.9510428,30.6593948 63.6128709,30.1199265 64.0956321,31.3666459 L64.0956321,31.3666459 Z M62.6019403,22.6582523 C63.3487862,22.89944 64.0956321,23.1406278 64.8400882,23.3864762 C64.5927328,23.6230034 64.3501572,23.8676867 64.0956321,24.1100396 C62.3306858,25.2320871 63.6248205,24.0645984 62.6019403,22.6582523 L62.6019403,22.6582523 Z M62.6019403,42.2620419 C61.8061012,42.800345 61.9040874,42.6966459 60.3781318,42.9856052 L60.3781318,42.2620419 C60.9732187,41.512845 60.6386317,42.0604695 61.117808,40.806759 C63.5304191,41.4056505 62.2542088,40.4467251 63.3487862,42.2620419 L62.6019403,42.2620419 Z M59.628896,27.7383428 C60.2263727,28.4770532 59.8917858,27.9375848 60.3781318,29.1889649 L59.628896,29.1889649 L59.628896,27.7383428 Z M61.8622641,34.2737161 L61.8622641,34.9996097 C60.5549849,34.5428676 61.1405122,34.8609559 60.3781318,34.2737161 L61.8622641,34.2737161 Z M50.6942288,18.3052206 L50.6942288,16.8487726 C51.5259164,18.0570419 52.0134574,17.6247681 50.6942288,18.3052206 L50.6942288,18.3052206 Z M43.9989044,18.3052206 C45.5391994,18.573207 45.4268738,18.4753337 46.2251027,19.0264536 C44.6848077,18.7561369 44.7971333,18.852845 43.9989044,18.3052206 L43.9989044,18.3052206 Z M81.9984253,21.3497794 C81.9984253,19.8047794 81.647109,18.3366799 81.0137836,17.0095645 C80.2370638,16.6565215 79.7076994,16.6204016 78.9859475,15.3958201 C79.4949977,15.4004808 79.8164402,15.4191233 80.0709653,15.4004808 C78.1685994,12.7427545 75.0294565,10.9705486 71.4661052,10.9064649 C71.4959791,10.9554016 71.5055387,10.988026 71.5425823,11.0404581 C71.370509,10.9856957 71.2378691,10.9402545 71.1064242,10.8959785 L61.117808,10.8959785 L61.117808,11.7663518 L59.628896,11.7663518 L59.628896,10.8959785 L40.7689451,10.8959785 L40.7689451,34.5149038 C40.7689451,35.943388 39.5871361,37.09806 38.1149534,37.09806 L30.5628474,37.09806 C30.5736019,37.1295192 30.5807717,37.1446663 30.5927212,37.1807862 L29.8506551,37.1807862 L29.8506551,37.09806 L19.2550025,37.09806 C18.0134458,37.09806 16.5986209,35.943388 16.5986209,34.5149038 L16.5986209,26.6407636 L8.53268487,26.6407636 L8.53268487,34.5149038 C8.53268487,37.2040894 9.61053292,39.6672342 11.3587499,41.5279921 L12.7245817,41.5279921 C13.4475286,41.3485577 13.0089806,40.9675509 13.4738175,41.5279921 C14.0318608,42.3133088 13.9171453,42.2224265 14.2182736,43.7091686 C14.1991543,43.7068382 14.1895947,43.7068382 14.1716704,43.7045079 C15.6904563,44.514293 17.4243338,44.9768609 19.2550025,44.9768609 L38.1149534,44.9768609 C39.3684596,44.9768609 40.5681929,44.7508201 41.6902542,44.3616572 L41.6902542,44.9768609 L49.7609701,44.9768609 L49.7609701,34.9331957 C48.7273353,34.5836482 49.1850025,34.8236708 48.4608607,34.2737161 L49.7609701,34.2737161 L49.7609701,18.7607975 L57.8340759,18.7607975 L57.8340759,44.9768609 L65.9071816,44.9768609 L65.9071816,18.7607975 L71.0717706,18.7607975 C71.2283095,18.6093269 71.3848484,18.4636821 71.5425823,18.3052206 C72.7781642,19.0264536 74.0245007,19.7558428 75.2612775,20.4805713 C75.0163121,20.7240894 74.7713466,20.9652771 74.5168215,21.2076301 L74.5168215,21.9300283 C74.323239,21.8741007 74.1224868,21.8356505 73.9289044,21.7925396 L73.9289044,29.1330373 C76.1288138,28.9827319 78.6501656,27.9480713 81.2169257,27.7383428 L81.2169257,29.1889649 L80.4748596,29.1889649 C78.358597,30.5405486 76.0284377,31.0299152 73.9289044,31.4237387 L73.9289044,33.8775622 C74.1619203,33.9870871 74.3722321,34.111759 74.5168215,34.2737161 C76.7239006,36.7030713 72.7757743,36.3966346 76.0057335,37.1807862 C75.7786924,35.4342138 75.2218441,34.7665781 77.4922557,33.5489876 L77.4922557,34.9996097 C76.5147837,36.5282975 78.2630007,37.635198 76.0057335,38.6302432 C75.2815917,38.444983 75.7237245,38.0581505 75.2612775,38.6302432 L74.5168215,38.6302432 C74.7821012,40.7088857 75.9196969,40.181069 73.9289044,41.4324491 L73.9289044,44.9768609 L78.4231244,44.9768609 C77.8722509,44.793931 78.1112416,44.9057862 77.4922557,44.4350622 L78.9859475,44.4350622 L78.9859475,44.9768609 L81.9984253,44.9768609 L81.9984253,33.5874378 C81.9852808,33.5769514 81.980501,33.5606391 81.9613817,33.5489876 C81.980501,33.5466572 81.9852808,33.5466572 81.9984253,33.5443269 L81.9984253,27.1138179 C81.9852808,27.0753676 81.980501,27.0543948 81.9613817,27.0171097 C81.980501,27.01944 81.9852808,27.0217704 81.9984253,27.0275962 L81.9984253,21.3497794 Z M12.3792401,17.5175735 L20.0735457,22.9332296 L17.1220105,14.2166799 L24.7601532,8.80568439 L15.3224106,8.80568439 L12.3792401,0.000582579186 L9.43128989,8.80568439 L-0.000477981395,8.80568439 L7.63168994,14.2166799 L4.65386585,22.9332296 L12.3792401,17.5175735 Z" id="Fill-1" fill="#FFFFFF" mask="url(#mask-2)"></path>
            </g>
        </g>
    </g>
</svg>